<svg xmlns="http://www.w3.org/2000/svg" width="1600" height="900" viewBox="0 0 1600 900" preserveAspectRatio="xMidYMid meet">

<defs>
  <radialGradient id="bgL" cx="50%" cy="40%" r="80%">
    <stop offset="0%" stop-color="#ffffff"/>
    <stop offset="70%" stop-color="#e8f0ff"/>
    <stop offset="100%" stop-color="#dbeafe"/>
  </radialGradient>
  <linearGradient id="linkL" x1="0" y1="0" x2="1" y2="1">
    <stop offset="0%" stop-color="#2563eb"/>
    <stop offset="100%" stop-color="#38bdf8"/>
  </linearGradient>
</defs>
<rect width="1600" height="900" fill="url(#bgL)"/>
<g opacity="0.95">
  <g stroke="url(#linkL)" stroke-width="3" stroke-opacity="0.8" fill="none">
    <path d="M200,260 L420,180 L760,260 L1080,180 L1400,260"/>
    <path d="M320,540 L640,620 L960,540 L1280,620"/>
    <path d="M420,180 L320,540 L640,620 L760,260 L960,540 L1080,180"/>
  </g>
  <g fill="#2563eb">
    <circle cx="200" cy="260" r="6" opacity="0.6"/>
    <circle cx="420" cy="180" r="6" opacity="0.6"/>
    <circle cx="760" cy="260" r="6" opacity="0.6"/>
    <circle cx="1080" cy="180" r="6" opacity="0.6"/>
    <circle cx="1400" cy="260" r="6" opacity="0.6"/>
    <circle cx="320" cy="540" r="6" opacity="0.6"/>
    <circle cx="640" cy="620" r="6" opacity="0.6"/>
    <circle cx="960" cy="540" r="6" opacity="0.6"/>
    <circle cx="1280" cy="620" r="6" opacity="0.6"/>
  </g>
</g>
</svg>
